<?xml version="1.0" encoding="UTF-8" standalone="no"?>
<!-- Generator: Adobe Illustrator 22.0.0, SVG Export Plug-In . SVG Version: 6.00 Build 0)  -->

<svg
   version="1.1"
   x="0px"
   y="0px"
   viewBox="0 0 403.60001 99.400002"
   xml:space="preserve"
   id="svg336"
   sodipodi:docname="ALIMS2.svg"
   inkscape:version="1.2.2 (732a01da63, 2022-12-09)"
   width="403.60001"
   height="99.400002"
   xmlns:inkscape="http://www.inkscape.org/namespaces/inkscape"
   xmlns:sodipodi="http://sodipodi.sourceforge.net/DTD/sodipodi-0.dtd"
   xmlns="http://www.w3.org/2000/svg"
   xmlns:svg="http://www.w3.org/2000/svg"><defs
   id="defs340"><clipPath
     clipPathUnits="userSpaceOnUse"
     id="clipPath1224"><rect
       style="fill:#ffffff;stroke:#000000"
       id="rect1226"
       width="429.51016"
       height="134.4086"
       x="48.944923"
       y="56.750298" /></clipPath></defs><sodipodi:namedview
   id="namedview338"
   pagecolor="#ffffff"
   bordercolor="#666666"
   borderopacity="1.0"
   inkscape:showpageshadow="2"
   inkscape:pageopacity="0.0"
   inkscape:pagecheckerboard="0"
   inkscape:deskcolor="#d1d1d1"
   showgrid="false"
   inkscape:zoom="1.674"
   inkscape:cx="310.9319"
   inkscape:cy="109.91637"
   inkscape:window-width="1920"
   inkscape:window-height="1017"
   inkscape:window-x="-8"
   inkscape:window-y="-5"
   inkscape:window-maximized="1"
   inkscape:current-layer="svg336" />
<style
   type="text/css"
   id="style172">
	.st0{fill:#FFEA00;}
	.st1{fill:#6EABFB;}
	.st2{fill:#FFFFFF;}
</style>

<g
   id="OBJECTS"
   transform="translate(-61.9,-69.3)"
   clip-path="url(#clipPath1224)">
	<g
   id="g195">
		<g
   id="g193">
			<g
   id="g191">
				<g
   id="g181">
					<path
   class="st0"
   d="m 126.7,168.7 c 0,0 -28.8,-22.6 -59.8,-15.5 L 70,140.4 c 0,0 3,0 5.9,1 l -1.3,7 c -0.1,0 28.1,-3.6 52.1,20.3"
   id="path175" />
					<path
   class="st1"
   d="m 126.7,168.7 c 0,0 -25.7,-31.8 -64.8,-31.8 L 83.8,71.6 c 0,0 1.8,0.3 6.9,2.2 l -18.6,55.4 c 0,0.1 39,11.1 54.6,39.5"
   id="path177" />
					<path
   class="st2"
   d="M 126.7,168.7 C 114,131.5 78.6,123.7 78.6,123.7 L 96.8,69.3 c 2.8,0.9 5.4,1.9 7.8,3.1 4.2,2.1 7.6,4.6 10.5,7.2 l -3,8.2 c 0,0 -3.3,-6.7 -11.2,-7.4 l -13,37.6 c -0.1,0.1 28.5,6.4 38.8,50.7 z"
   id="path179" />
				</g>
				<g
   id="g189">
					<path
   class="st0"
   d="m 145.5,168.7 c 0,0 28.8,-22.6 59.8,-15.5 l -3.1,-12.8 c 0,0 -3,0 -5.9,1 l 1.3,7 c 0,0 -28.1,-3.6 -52.1,20.3"
   id="path183" />
					<path
   class="st1"
   d="m 145.5,168.7 c 0,0 25.7,-31.8 64.8,-31.8 L 188.4,71.6 c 0,0 -1.8,0.3 -6.9,2.2 l 18.6,55.4 c 0,0.1 -39,11.1 -54.6,39.5"
   id="path185" />
					<path
   class="st2"
   d="m 145.5,168.7 c 12.7,-37.2 48.1,-45 48.1,-45 L 175.4,69.3 c -2.8,0.9 -5.4,1.9 -7.8,3.1 -4.2,2.1 -7.6,4.6 -10.5,7.2 l 3,8.2 c 0,0 3.3,-6.7 11.2,-7.4 l 13,37.6 c 0,0.1 -28.5,6.4 -38.8,50.7 z"
   id="path187" />
				</g>
			</g>
		</g>
	</g>
	<g
   id="g221">
		<path
   class="st2"
   d="m 150.6,122 c 0,0 -5.6,6.3 -15.1,4.2 0,0 -7.2,-1.6 -10.3,-9.4 l -4.7,-0.9 c 0,0 1.3,8.2 9.7,12.6 0,0 10.4,6.3 21.3,-1.7 0,0 2.2,-1.6 3.7,-3.8 z"
   id="path197" />
		<path
   class="st2"
   d="m 152.6,130.1 c 0,0 -12.4,8 -26.2,-0.6 0,0 -10.1,-5.9 -10.9,-18.8 l -7,-3.6 c 0,0 -2.2,19.2 16.8,29.7 0,0 17.1,9.9 34.4,-3.1 z"
   id="path199" />
		<path
   class="st2"
   d="m 156.1,101.8 c -5.3,0 -9.5,4.2 -9.5,9.3 0,5.2 4.3,9.3 9.5,9.3 5.2,0 9.5,-4.2 9.5,-9.3 0,-5.1 -4.3,-9.3 -9.5,-9.3 z m 0,14.5 c -2.9,0 -5.2,-2.3 -5.2,-5.2 0,-2.9 2.3,-5.2 5.2,-5.2 2.9,0 5.2,2.3 5.2,5.2 0,2.9 -2.3,5.2 -5.2,5.2 z"
   id="path201" />
		<g
   id="g219">
			<path
   class="st2"
   d="m 131.6,98.8 c -0.1,0.2 -0.2,0.5 -0.2,0.9 0,0.4 0.1,0.8 0.2,1 0.1,0.1 0.3,0.2 0.5,0.2 0.1,0 0.2,0 0.3,-0.1 0.1,-0.1 0.2,-0.2 0.3,-0.4 0.1,-0.2 0.1,-0.4 0.1,-0.7 0,-0.3 0,-0.6 -0.1,-0.8 -0.1,-0.2 -0.1,-0.3 -0.2,-0.4 -0.1,-0.1 -0.2,-0.1 -0.3,-0.1 -0.3,0 -0.5,0.1 -0.6,0.4 z"
   id="path203" />
			<polygon
   class="st2"
   points="123.7,100 123.3,99.1 122.9,100 "
   id="polygon205" />
			<path
   class="st2"
   d="m 123.1,90.1 c 1.4,-0.5 1.3,-1.9 1.3,-1.9 -0.6,0.7 -1.4,1 -1.4,1 -1.4,0.5 -1.2,1.9 -1.2,1.9 0.3,-0.5 1.3,-1 1.3,-1 z"
   id="path207" />
			<path
   class="st2"
   d="m 125.6,86.7 c -5.2,0 -9.4,4.2 -9.4,9.5 0,5.2 4.2,9.5 9.4,9.5 5.2,0 9.4,-4.2 9.4,-9.5 0,-5.3 -4.2,-9.5 -9.4,-9.5 z m -2.5,2.1 c 0,0 1,-0.4 1.8,-1.3 0,0 0.1,2.1 -1.3,2.8 0,0 -1.2,0.5 -1.7,1.3 0,0 2.3,2.2 3.7,2.3 0,0 1.5,0.3 2.1,-0.6 0,0 1.1,-1.9 2.3,-1.6 0,0 0.9,0.3 0.7,1.2 0,0 -0.2,1 -1.3,0.6 0,0 -0.5,-0.3 -0.3,-0.8 0,0 0.2,0 0.3,0.3 0,0 0.1,0.2 0.3,0.2 0,0 0.5,0 0.4,-0.6 0,0 -0.1,-0.6 -0.8,-0.4 0,0 -0.7,0.3 -1,1.4 0,0 -0.2,0.9 -1.1,1.8 0,0 -0.1,0.1 0.1,0.2 l 1.3,0.3 h -4.9 c 0,0 0.2,-0.4 0.5,-0.5 0,0 0.2,0 0.3,-0.1 0,0 -2.2,-2.2 -3,-3.5 l -0.1,-1 c 0,0.1 -0.2,-1.1 1.7,-2 z m -4.2,12.2 c -0.1,0 -0.2,0 -0.2,0 -0.1,0 -0.2,0 -0.3,-0.1 -0.1,0 -0.1,0 -0.2,0 0,0 -0.1,0 -0.1,0 0,0 -0.1,0.1 -0.1,0.1 v 0 -1 h 0.1 c 0.1,0.3 0.2,0.5 0.3,0.6 0.2,0.1 0.3,0.2 0.5,0.2 0.1,0 0.3,0 0.3,-0.1 0.1,-0.1 0.1,-0.2 0.1,-0.3 0,-0.1 0,-0.1 0,-0.2 0,-0.1 -0.1,-0.1 -0.2,-0.2 -0.1,-0.1 -0.2,-0.1 -0.4,-0.2 -0.2,-0.1 -0.4,-0.2 -0.5,-0.3 -0.1,-0.1 -0.2,-0.2 -0.2,-0.3 -0.1,-0.1 -0.1,-0.2 -0.1,-0.3 0,-0.2 0.1,-0.4 0.2,-0.5 0.2,-0.1 0.3,-0.2 0.6,-0.2 0.1,0 0.2,0 0.2,0 0.1,0 0.1,0 0.2,0.1 0.1,0 0.1,0.1 0.2,0.1 0,0 0.1,0 0.1,0 0,0 0,-0.1 0.1,-0.1 h 0.1 v 0.9 h -0.1 c 0,-0.2 -0.1,-0.4 -0.3,-0.5 -0.1,-0.1 -0.3,-0.2 -0.5,-0.2 -0.1,0 -0.2,0 -0.3,0.1 -0.1,0.1 -0.1,0.1 -0.1,0.2 0,0.1 0,0.1 0,0.2 0,0.1 0.1,0.1 0.2,0.2 0.1,0 0.2,0.1 0.4,0.2 0.3,0.1 0.5,0.3 0.6,0.4 0.1,0.1 0.2,0.3 0.2,0.5 0,0.2 -0.1,0.4 -0.3,0.6 0,0 -0.2,0.1 -0.5,0.1 z m 0.9,-0.1 v 0 0 c 0.2,-0.1 0.2,-0.1 0.3,-0.1 0,0 0.1,0 0.1,-0.1 0,0 0,-0.1 0,-0.2 v -1.7 c 0,-0.1 0,-0.2 0,-0.2 0,0 0,-0.1 -0.1,-0.1 0,0 -0.1,-0.1 -0.2,-0.1 h -0.1 v -0.1 h 2.2 v 0.8 h -0.1 c 0,-0.2 -0.1,-0.3 -0.2,-0.4 -0.1,-0.1 -0.2,-0.1 -0.3,-0.2 -0.1,0 -0.2,0 -0.4,0 h -0.3 v 1.1 h 0.1 c 0.2,0 0.3,-0.1 0.4,-0.2 0.1,-0.1 0.1,-0.3 0.1,-0.5 h 0.1 v 1.4 h -0.1 c 0,-0.1 0,-0.3 -0.1,-0.4 0,-0.1 -0.1,-0.2 -0.2,-0.2 -0.1,0 -0.2,0 -0.3,0 v 0.7 c 0,0.1 0,0.2 0,0.3 0,0 0,0.1 0.1,0.1 0,0 0.1,0 0.2,0 h 0.2 c 0.2,0 0.4,-0.1 0.6,-0.2 0.1,-0.1 0.3,-0.3 0.3,-0.5 h 0.1 l -0.1,0.8 z m 8.2,-0.2 c 0.1,0 0.1,0.1 0,0 0.1,0.1 0.2,0.1 0.3,0.1 v 0 0.1 H 127 v -0.1 h 0.1 c 0.1,0 0.1,0 0.2,0 0,0 0.1,0 0.1,-0.1 0,0 0,-0.1 0,-0.2 v -1.9 l -1,2.4 v 0 l -1,-2.3 v 1.8 c 0,0.1 0,0.2 0,0.2 0,0.1 0.1,0.1 0.1,0.2 0.1,0 0.1,0.1 0.3,0.1 v 0.1 H 125 V 101 c 0,0 0,0 0,0 0,0 0,0 -0.1,0 v 0 0.1 h -1.1 V 101 h 0.1 c 0.1,0 0.2,0 0.2,0 0,0 0,0 0,-0.1 0,0 0,0 0,-0.1 0,0 0,-0.1 -0.1,-0.1 l -0.1,-0.3 H 123 l -0.1,0.3 c 0,0.1 -0.1,0.2 -0.1,0.2 0,0.1 0,0.1 0.1,0.2 0,0 0.1,0 0.3,0 v 0.1 h -0.9 v -0.1 c 0.1,0 0.2,-0.1 0.2,-0.1 0.1,-0.1 0.1,-0.2 0.2,-0.4 l 0.9,-2.1 v 0 l 0.9,2.1 c 0.1,0.2 0.2,0.3 0.2,0.4 0,0 0.1,0.1 0.2,0.1 0,0 0.1,0 0.1,0 0.1,0 0.1,0 0.1,-0.1 0,0 0,-0.1 0.1,-0.1 0,0 0,-0.1 0,-0.2 v -1.6 c 0,-0.1 0,-0.2 0,-0.2 0,0 0,-0.1 -0.1,-0.1 0,0 -0.1,0 -0.2,0 h -0.1 v -0.1 h 1.1 l 0.7,1.7 0.7,-1.7 h 1 v 0.1 0 c -0.1,0 -0.1,0 -0.2,0 0,0 -0.1,0 -0.1,0.1 0,0 0,0.1 0,0.2 v 1.7 c 0,-0.2 0,-0.1 0,-0.1 z m 2.6,0.2 h -2.2 v -0.1 0 c 0.1,0 0.1,0 0.2,0 0,0 0.1,0 0.1,-0.1 0,0 0,-0.1 0,-0.2 v -1.7 c 0,-0.1 0,-0.2 0,-0.2 0,0 0,-0.1 -0.1,-0.1 0,0 -0.1,-0.1 -0.2,-0.1 v 0 -0.1 h 2.1 v 0.8 h -0.1 c 0,-0.2 -0.1,-0.3 -0.2,-0.4 -0.1,-0.1 -0.2,-0.1 -0.3,-0.2 -0.1,0 -0.2,0 -0.4,0 h -0.3 v 1.1 h 0.1 c 0.2,0 0.3,-0.1 0.4,-0.2 0.1,-0.1 0.1,-0.3 0.1,-0.5 h 0.1 v 1.4 h -0.1 c 0,-0.1 0,-0.3 -0.1,-0.4 0,-0.1 -0.1,-0.2 -0.2,-0.2 -0.1,0 -0.2,0 -0.3,0 v 0.7 c 0,0.1 0,0.2 0,0.3 0,0 0,0.1 0.1,0.1 0,0 0.1,0 0.2,0 h 0.2 c 0.2,0 0.4,-0.1 0.6,-0.2 0.1,-0.1 0.3,-0.3 0.3,-0.5 h 0.1 z m 3,-1.3 c 0,0.3 -0.1,0.6 -0.3,0.9 -0.3,0.3 -0.6,0.5 -1.1,0.5 -0.5,0 -0.8,-0.2 -1.1,-0.5 -0.2,-0.2 -0.3,-0.5 -0.3,-0.9 0,-0.4 0.1,-0.7 0.4,-1 0.3,-0.3 0.6,-0.4 1,-0.4 0.4,0 0.8,0.1 1,0.4 0.2,0.3 0.4,0.6 0.4,1 z M 133,96.4 c -0.1,0.8 -0.9,1 -0.9,1 h -13.6 c -0.8,-0.3 -0.8,-1.1 -0.8,-1.1 0,-0.8 0.9,-1.1 0.9,-1.1 l 1.3,-0.4 c 1.6,0.1 1.3,1.4 1.3,1.4 h 8.3 c -0.2,-0.5 0,-0.9 0,-0.9 0.4,-0.7 1.3,-0.5 1.3,-0.5 l 1.5,0.5 c 0.8,0.3 0.7,1.1 0.7,1.1 z"
   id="path209" />
			<path
   class="st2"
   d="m 140.4,98.5 c -1.7,1.3 -3.2,0.3 -3.2,0.3 0.4,-1.3 0.3,-3.6 0.3,-3.6 l 2.3,-0.5 c 0.4,-0.1 0.5,-0.8 0.5,-0.8 0.2,-2.6 -1.4,-4.7 -1.4,-4.7 -0.2,1.9 -2.4,2.3 -2.4,2.3 -0.7,-1.8 -2,-3.2 -2,-3.2 l 1.4,-1.6 c 0.5,-0.5 0.1,-1 0.1,-1 -1.5,-2.6 -3.9,-3.1 -3.9,-3.1 0.8,1.7 -0.6,3.2 -0.6,3.2 -1.9,-1.2 -3.5,-1.4 -3.5,-1.4 l 0.1,-2 c 0.1,-0.7 -0.5,-0.9 -0.5,-0.9 -2.6,-1.1 -5,-0.1 -5,-0.1 1.6,0.5 1.5,2.9 1.5,2.9 -2,0.2 -3.6,1 -3.6,1 l -1.1,-1.8 c -0.3,-0.6 -1,-0.4 -1,-0.4 -3,0.9 -4.1,2.8 -4.1,2.8 1.9,-0.4 2.9,1.5 2.9,1.5 -1.4,1.3 -2.2,2.9 -2.2,2.9 l -1.8,-0.8 c -0.7,-0.3 -1,0.1 -1,0.1 -1.8,1.9 -1.7,4.7 -1.7,4.7 1.3,-1.3 3.2,-0.3 3.2,-0.3 -0.3,1.8 -0.1,3.4 -0.1,3.4 l -2.1,0.5 c -0.7,0.2 -0.7,0.8 -0.7,0.8 -0.2,2.8 1.4,4.7 1.4,4.7 0.4,-2.1 2.4,-2.2 2.4,-2.2 0.5,1.2 1.9,2.9 1.9,2.9 l -1.3,1.4 c -0.6,0.6 -0.3,1.2 -0.3,1.2 1.3,2.2 3.9,3.1 3.9,3.1 -0.7,-2.1 0.6,-3.2 0.6,-3.2 1.5,0.9 3.2,1.3 3.2,1.3 l -0.2,2.1 c 0,0.7 0.5,0.9 0.5,0.9 2.4,1 5,0.1 5,0.1 -1.7,-0.9 -1.4,-2.9 -1.4,-2.9 1.9,-0.2 3.4,-0.8 3.4,-0.8 l 1.3,2 c 0.3,0.5 1,0.2 1,0.2 2.8,-1 4,-2.9 4,-2.9 -2,0.4 -3,-1.4 -3,-1.4 1.5,-1.2 2.3,-2.7 2.3,-2.7 l 1.8,0.8 c 0.8,0.3 1.1,-0.1 1.1,-0.1 2.3,-2 2,-4.7 2,-4.7 z m -14.8,7.6 c -5.5,0 -9.9,-4.5 -9.9,-10 0,-5.5 4.5,-10 9.9,-10 5.5,0 9.9,4.5 9.9,10 0,5.5 -4.4,10 -9.9,10 z"
   id="path211" />
			<path
   class="st2"
   d="m 131.1,95.9 c 0,0 -0.2,0.6 0.4,0.8 0,0 0.4,0 0.3,-0.4 0,0 0,-0.2 -0.3,-0.1 0,0 -0.1,0 -0.2,-0.1 0,0 0,-0.2 0.3,-0.2 0,0 0.4,0 0.4,0.4 0,0 0.1,0.5 -0.6,0.6 h -12.5 c 0,0 -0.6,0 -0.7,-0.5 0,0 -0.1,-0.4 0.5,-0.5 0,0 0.2,0 0.2,0.1 0,0 0,0.1 -0.1,0.1 0,0 -0.3,0 -0.3,0.2 0,0 0,0.4 0.7,0.3 0,0 0.3,-0.1 0.3,-0.4 0,0 0.1,-0.8 -0.9,-0.8 0,0 -0.8,0.1 -0.8,0.9 0,0 0.1,0.6 0.6,0.9 h 13.4 c 0,0 0.6,-0.3 0.6,-0.8 0,0 0.1,-1 -1,-0.9 0.4,0 -0.1,0 -0.3,0.4 z"
   id="path213" />
			<path
   class="st2"
   d="m 119.9,96.5 1,-0.3 c 0.2,-1 -0.8,-1 -0.8,-1 l -0.7,0.2 c 0.7,0.3 0.5,1.1 0.5,1.1 z"
   id="path215" />
			<path
   class="st2"
   d="m 130,95.3 c 0,0 -0.3,0.3 -0.2,0.8 l 1,0.4 c 0,0 -0.3,-0.8 0.5,-1.1 l -0.6,-0.2 c 0,-0.1 -0.4,-0.2 -0.7,0.1 z"
   id="path217" />
		</g>
	</g>
	<g
   id="g233">
		<path
   class="st0"
   d="m 265.4,113.5 h -9.9 l -3.1,-8.8 h -17 l -3.1,8.8 h -9.9 l 13.9,-40.9 h 15.2 z M 238.4,96 h 11 l -5.5,-14.6 z"
   id="path223" />
		<path
   class="st0"
   d="m 292.2,104.8 h 19.9 v 8.8 h -29.8 v -41 h 9.9 z"
   id="path225" />
		<path
   class="st0"
   d="m 342.2,72.6 v 8.8 h -9.9 v -8.8 z m 0,11.7 v 29.2 h -9.9 V 84.3 Z"
   id="path227" />
		<path
   class="st0"
   d="m 362.4,72.6 h 13.9 l 10.9,24.8 10.9,-24.8 H 412 v 40.9 h -9.9 V 88.7 l -10.6,24.8 H 383 L 372.4,88.7 v 24.8 h -9.9 V 72.6 Z"
   id="path229" />
		<path
   class="st0"
   d="m 432.3,113.5 v -8.8 h 19.9 c 2.2,0 3.3,-1 3.3,-2.9 v -1.5 c 0,-1.9 -1.1,-2.9 -3.3,-2.9 h -6.6 c -8.8,0 -13.3,-3.9 -13.3,-11.7 v -1.5 c 0,-7.8 4.4,-11.7 13.3,-11.7 h 19.9 v 8.8 h -19.9 c -2.2,0 -3.3,1 -3.3,2.9 v 1.5 c 0,1.9 1.1,2.9 3.3,2.9 h 6.6 c 8.8,0 13.3,3.9 13.3,11.7 v 1.5 c 0,7.8 -4.4,11.7 -13.3,11.7 z"
   id="path231" />
	</g>
	<g
   id="g269">
		<path
   class="st2"
   d="M 238.8,134.7 H 235 l -1.2,-3.4 h -6.5 l -1.2,3.4 h -3.8 l 5.3,-15.9 h 5.8 z m -10.3,-6.9 h 4.2 l -2.1,-5.7 z"
   id="path235" />
		<path
   class="st2"
   d="m 243.9,130.1 c 0,0.8 0.4,1.1 1.3,1.1 h 6.4 v 3.4 h -6.4 c -3.4,0 -5.1,-1.5 -5.1,-4.6 v -6.8 c 0,-3 1.7,-4.6 5.1,-4.6 h 6.4 v 3.4 h -6.4 c -0.8,0 -1.3,0.4 -1.3,1.1 z"
   id="path237" />
		<path
   class="st2"
   d="m 257.9,130.1 c 0,0.8 0.4,1.1 1.3,1.1 h 6.4 v 3.4 h -6.4 c -3.4,0 -5.1,-1.5 -5.1,-4.6 v -6.8 c 0,-3 1.7,-4.6 5.1,-4.6 h 6.4 v 3.4 h -6.4 c -0.8,0 -1.3,0.4 -1.3,1.1 z"
   id="path239" />
		<path
   class="st2"
   d="m 279.5,125 v 3.4 h -7.6 v 2.8 h 7.6 v 3.4 h -11.4 v -15.9 h 11.4 v 3.4 h -7.6 v 2.8 h 7.6 z"
   id="path241" />
		<path
   class="st2"
   d="m 282,134.7 v -3.4 h 7.6 c 0.8,0 1.3,-0.4 1.3,-1.1 v -0.6 c 0,-0.8 -0.4,-1.1 -1.3,-1.1 h -2.5 c -3.4,0 -5.1,-1.5 -5.1,-4.6 v -0.6 c 0,-3 1.7,-4.6 5.1,-4.6 h 7.6 v 3.4 h -7.6 c -0.8,0 -1.3,0.4 -1.3,1.1 v 0.6 c 0,0.8 0.4,1.1 1.3,1.1 h 2.5 c 3.4,0 5.1,1.5 5.1,4.6 v 0.6 c 0,3 -1.7,4.6 -5.1,4.6 z"
   id="path243" />
		<path
   class="st2"
   d="m 297.3,134.7 v -3.4 h 7.6 c 0.8,0 1.3,-0.4 1.3,-1.1 v -0.6 c 0,-0.8 -0.4,-1.1 -1.3,-1.1 h -2.5 c -3.4,0 -5.1,-1.5 -5.1,-4.6 v -0.6 c 0,-3 1.7,-4.6 5.1,-4.6 h 7.6 v 3.4 h -7.6 c -0.8,0 -1.3,0.4 -1.3,1.1 v 0.6 c 0,0.8 0.4,1.1 1.3,1.1 h 2.5 c 3.4,0 5.1,1.5 5.1,4.6 v 0.6 c 0,3 -1.7,4.6 -5.1,4.6 z"
   id="path245" />
		<path
   class="st2"
   d="m 316.3,118.7 v 15.9 h -3.8 v -15.9 z"
   id="path247" />
		<path
   class="st2"
   d="m 326.5,118.7 c 3.4,0 5.1,1.5 5.1,4.6 0,2 -0.7,3.2 -2.2,3.4 1.4,0.2 2.2,1.4 2.2,3.4 0,3 -1.7,4.6 -5.1,4.6 h -7.6 v -15.9 h 7.6 z m -3.8,3.4 v 2.8 h 3.8 c 0.8,0 1.3,-0.4 1.3,-1.1 v -0.6 c 0,-0.8 -0.4,-1.1 -1.3,-1.1 z m 0,6.3 v 2.8 h 3.8 c 0.8,0 1.3,-0.4 1.3,-1.1 v -0.6 c 0,-0.8 -0.4,-1.1 -1.3,-1.1 z"
   id="path249" />
		<path
   class="st2"
   d="m 337.9,131.2 h 7.6 v 3.4 h -11.4 v -15.9 h 3.8 z"
   id="path251" />
		<path
   class="st2"
   d="m 359.5,125 v 3.4 h -7.6 v 2.8 h 7.6 v 3.4 h -11.4 v -15.9 h 11.4 v 3.4 h -7.6 v 2.8 h 7.6 z"
   id="path253" />
		<path
   class="st2"
   d="m 370.9,131.2 h 7.6 v 3.4 h -11.4 v -15.9 h 3.8 z"
   id="path255" />
		<path
   class="st2"
   d="m 384.9,118.7 v 15.9 h -3.8 v -15.9 z"
   id="path257" />
		<path
   class="st2"
   d="m 395.1,118.7 c 3.4,0 5.1,1.5 5.1,4.6 0,2 -0.7,3.2 -2.2,3.4 1.4,0.2 2.2,1.4 2.2,3.4 0,3 -1.7,4.6 -5.1,4.6 h -7.6 v -15.9 h 7.6 z m -3.8,3.4 v 2.8 h 3.8 c 0.8,0 1.3,-0.4 1.3,-1.1 v -0.6 c 0,-0.8 -0.4,-1.1 -1.3,-1.1 z m 0,6.3 v 2.8 h 3.8 c 0.8,0 1.3,-0.4 1.3,-1.1 v -0.6 c 0,-0.8 -0.4,-1.1 -1.3,-1.1 z"
   id="path259" />
		<path
   class="st2"
   d="m 409,129 h -2.5 v 5.7 h -3.8 v -15.9 h 7.6 c 3.4,0 5.1,1.5 5.1,4.6 v 1.1 c 0,1.9 -0.8,3.2 -2.3,3.9 l 2.3,6.3 h -3.8 z m -2.5,-6.9 v 3.4 h 3.8 c 0.8,0 1.3,-0.4 1.3,-1.1 v -1.1 c 0,-0.8 -0.4,-1.1 -1.3,-1.1 h -3.8 z"
   id="path261" />
		<path
   class="st2"
   d="m 433.2,134.7 h -3.8 l -1.2,-3.4 h -6.5 l -1.2,3.4 h -3.8 l 5.3,-15.9 h 5.8 z m -10.4,-6.9 h 4.2 l -2.1,-5.7 z"
   id="path263" />
		<path
   class="st2"
   d="m 440.8,129 h -2.5 v 5.7 h -3.8 v -15.9 h 7.6 c 3.4,0 5.1,1.5 5.1,4.6 v 1.1 c 0,1.9 -0.8,3.2 -2.3,3.9 l 2.3,6.3 h -3.8 z m -2.6,-6.9 v 3.4 h 3.8 c 0.8,0 1.3,-0.4 1.3,-1.1 v -1.1 c 0,-0.8 -0.4,-1.1 -1.3,-1.1 h -3.8 z"
   id="path265" />
		<path
   class="st2"
   d="m 452.3,118.7 3.7,5.7 3.7,-5.7 h 3.9 l -5.7,9.1 v 6.8 h -3.8 v -6.8 l -5.7,-9.1 z"
   id="path267" />
	</g>
	<g
   id="g303">
		<path
   class="st2"
   d="m 223.5,139.3 h 4.8 l 3.8,9.7 3.8,-9.7 h 4.8 v 15.9 h -3.4 v -9.7 l -3.6,9.7 h -3 l -3.6,-9.7 v 9.7 h -3.4 v -15.9 z"
   id="path271" />
		<path
   class="st2"
   d="m 256.5,155.3 h -3.4 l -1.1,-3.4 h -5.9 l -1.1,3.4 h -3.4 l 4.8,-15.9 h 5.2 z m -9.3,-6.9 h 3.8 l -1.9,-5.7 z"
   id="path273" />
		<path
   class="st2"
   d="m 261.1,139.3 5.7,9.7 v -9.7 h 3.4 v 15.9 h -3.4 l -5.7,-9.7 v 9.7 h -3.4 v -15.9 z"
   id="path275" />
		<path
   class="st2"
   d="m 286.1,155.3 h -3.4 l -1.1,-3.4 h -5.9 l -1.1,3.4 h -3.4 l 4.8,-15.9 h 5.2 z m -9.3,-6.9 h 3.8 l -1.9,-5.7 z"
   id="path277" />
		<path
   class="st2"
   d="m 290.7,150.7 c 0,0.8 0.4,1.1 1.1,1.1 h 2.3 c 0.8,0 1.1,-0.4 1.1,-1.1 V 149 h -2.3 v -3.4 h 5.7 v 5.1 c 0,3 -1.5,4.6 -4.6,4.6 h -2.3 c -3,0 -4.6,-1.5 -4.6,-4.6 v -6.8 c 0,-3 1.5,-4.6 4.6,-4.6 h 6.8 v 3.4 h -6.8 c -0.8,0 -1.1,0.4 -1.1,1.1 v 6.9 z"
   id="path279" />
		<path
   class="st2"
   d="m 311.2,145.6 v 3.4 h -6.8 v 2.8 h 6.8 v 3.4 H 301 v -15.9 h 10.2 v 3.4 h -6.8 v 2.8 h 6.8 z"
   id="path281" />
		<path
   class="st2"
   d="m 313.4,139.3 h 4.8 l 3.8,9.7 3.8,-9.7 h 4.8 v 15.9 h -3.4 v -9.7 l -3.6,9.7 h -3 l -3.6,-9.7 v 9.7 h -3.4 v -15.9 z"
   id="path283" />
		<path
   class="st2"
   d="m 343,145.6 v 3.4 h -6.8 v 2.8 h 6.8 v 3.4 H 332.8 V 139.3 H 343 v 3.4 h -6.8 v 2.8 h 6.8 z"
   id="path285" />
		<path
   class="st2"
   d="m 348.7,139.3 5.7,9.7 v -9.7 h 3.4 v 15.9 h -3.4 l -5.7,-9.7 v 9.7 h -3.4 v -15.9 z"
   id="path287" />
		<path
   class="st2"
   d="m 371.5,139.3 v 3.4 h -4 v 12.5 h -3.4 v -12.5 h -4 v -3.4 z"
   id="path289" />
		<path
   class="st2"
   d="m 378.3,155.3 v -3.4 h 6.8 c 0.8,0 1.1,-0.4 1.1,-1.1 v -0.6 c 0,-0.8 -0.4,-1.1 -1.1,-1.1 h -2.3 c -3,0 -4.6,-1.5 -4.6,-4.6 v -0.6 c 0,-3 1.5,-4.6 4.6,-4.6 h 6.8 v 3.4 h -6.8 c -0.8,0 -1.1,0.4 -1.1,1.1 v 0.6 c 0,0.8 0.4,1.1 1.1,1.1 h 2.3 c 3,0 4.6,1.5 4.6,4.6 v 0.6 c 0,3 -1.5,4.6 -4.6,4.6 z"
   id="path291" />
		<path
   class="st2"
   d="m 394.4,139.3 3.3,5.7 3.3,-5.7 h 3.5 l -5.1,9.1 v 6.8 H 396 v -6.8 l -5.1,-9.1 z"
   id="path293" />
		<path
   class="st2"
   d="m 405.7,155.3 v -3.4 h 6.8 c 0.8,0 1.1,-0.4 1.1,-1.1 v -0.6 c 0,-0.8 -0.4,-1.1 -1.1,-1.1 h -2.3 c -3,0 -4.6,-1.5 -4.6,-4.6 v -0.6 c 0,-3 1.5,-4.6 4.6,-4.6 h 6.8 v 3.4 h -6.8 c -0.8,0 -1.1,0.4 -1.1,1.1 v 0.6 c 0,0.8 0.4,1.1 1.1,1.1 h 2.3 c 3,0 4.6,1.5 4.6,4.6 v 0.6 c 0,3 -1.5,4.6 -4.6,4.6 z"
   id="path295" />
		<path
   class="st2"
   d="m 430.7,139.3 v 3.4 h -4 v 12.5 h -3.4 v -12.5 h -4 v -3.4 z"
   id="path297" />
		<path
   class="st2"
   d="m 443.3,145.6 v 3.4 h -6.8 v 2.8 h 6.8 v 3.4 H 433 v -15.9 h 10.2 v 3.4 h -6.8 v 2.8 h 6.9 z"
   id="path299" />
		<path
   class="st2"
   d="m 445.5,139.3 h 4.8 l 3.8,9.7 3.8,-9.7 h 4.8 v 15.9 h -3.4 v -9.7 l -3.6,9.7 h -3 l -3.6,-9.7 v 9.7 h -3.4 v -15.9 z"
   id="path301" />
	</g>
	<g
   id="g305">
	</g>
	<g
   id="g307">
	</g>
	<g
   id="g309">
	</g>
	<g
   id="g311">
	</g>
	<g
   id="g313">
	</g>
	<g
   id="g315">
	</g>
	<g
   id="g317">
	</g>
	<g
   id="g319">
	</g>
	<g
   id="g321">
	</g>
	<g
   id="g323">
	</g>
	<g
   id="g325">
	</g>
	<g
   id="g327">
	</g>
	<g
   id="g329">
	</g>
	<g
   id="g331">
	</g>
	<g
   id="g333">
	</g>
</g>
</svg>
